<svg width="1200" height="800" viewBox="0 0 1200 800" fill="none" xmlns="http://www.w3.org/2000/svg" role="img" aria-label="Cell Beauty Health — live client marketing website">
  <defs>
    <linearGradient id="cbh-bg" x1="0" y1="0" x2="1200" y2="800" gradientUnits="userSpaceOnUse">
      <stop stop-color="#10140f"/>
      <stop offset="1" stop-color="#0b0e0c"/>
    </linearGradient>
    <radialGradient id="cbh-glow" cx="0" cy="0" r="1" gradientTransform="translate(900 300) rotate(125) scale(440)">
      <stop stop-color="#8fac7e" stop-opacity="0.16"/>
      <stop offset="1" stop-color="#8fac7e" stop-opacity="0"/>
    </radialGradient>
    <pattern id="cbh-grid" width="48" height="48" patternUnits="userSpaceOnUse">
      <path d="M48 0H0V48" fill="none" stroke="#20281f" stroke-width="1"/>
    </pattern>
  </defs>

  <rect width="1200" height="800" fill="url(#cbh-bg)"/>
  <rect width="1200" height="800" fill="url(#cbh-grid)" opacity="0.6"/>
  <rect width="1200" height="800" fill="url(#cbh-glow)"/>

  <g stroke="#8fac7e" stroke-width="2" stroke-linecap="round" opacity="0.7">
    <path d="M48 48h28M48 48v28"/>
    <path d="M1152 48h-28M1152 48v28"/>
    <path d="M48 752h28M48 752v-28"/>
    <path d="M1152 752h-28M1152 752v-28"/>
  </g>

  <text x="80" y="118" font-family="ui-monospace, Menlo, monospace" font-size="22" letter-spacing="6" fill="#7f7d72">CLIENT // WEB</text>
  <g>
    <circle cx="1004" cy="110" r="7" fill="#8fac7e"/>
    <text x="1026" y="118" font-family="ui-monospace, Menlo, monospace" font-size="22" letter-spacing="4" fill="#8fac7e">LIVE · 200 OK</text>
  </g>

  <!-- cellular / molecule motif -->
  <g transform="translate(885 300)" stroke="#8fac7e" stroke-width="2" opacity="0.9">
    <circle cx="0" cy="0" r="78" fill="none" stroke="#2a342c"/>
    <line x1="-40" y1="-30" x2="36" y2="20" stroke="#3a463b"/>
    <line x1="36" y1="20" x2="-10" y2="56" stroke="#3a463b"/>
    <line x1="-40" y1="-30" x2="-44" y2="34" stroke="#3a463b"/>
    <circle cx="-40" cy="-30" r="12" fill="#ec8b56" stroke="none"/>
    <circle cx="36" cy="20" r="10" fill="#8fac7e" stroke="none"/>
    <circle cx="-10" cy="56" r="8" fill="#8fac7e" stroke="none"/>
    <circle cx="-44" cy="34" r="8" fill="#ece6d8" stroke="none" opacity="0.7"/>
    <circle cx="28" cy="-44" r="7" fill="#8fac7e" stroke="none"/>
  </g>

  <text x="80" y="520" font-family="Georgia, 'Times New Roman', serif" font-size="94" font-weight="600" fill="#ece6d8">Cell Beauty Health</text>
  <text x="82" y="580" font-family="ui-sans-serif, system-ui, sans-serif" font-size="28" fill="#b8b2a3">Responsive marketing site for a wellness brand</text>

  <line x1="80" y1="640" x2="1120" y2="640" stroke="#2a342c" stroke-width="1"/>
  <text x="80" y="686" font-family="ui-monospace, Menlo, monospace" font-size="20" letter-spacing="3" fill="#7f7d72">REQUIREMENTS · IA · RESPONSIVE BUILD · FORMS · DEPLOY</text>
</svg>
