<svg width="1200" height="800" viewBox="0 0 1200 800" fill="none" xmlns="http://www.w3.org/2000/svg" role="img" aria-label="Keeping Up With The Robots — live Western Massachusetts AI newsletter">
  <defs>
    <linearGradient id="kur-bg" x1="0" y1="0" x2="1200" y2="800" gradientUnits="userSpaceOnUse">
      <stop stop-color="#10150f"/>
      <stop offset="1" stop-color="#0b0e0b"/>
    </linearGradient>
    <radialGradient id="kur-glow" cx="0" cy="0" r="1" gradientTransform="translate(880 280) rotate(130) scale(420)">
      <stop stop-color="#8fac7e" stop-opacity="0.22"/>
      <stop offset="1" stop-color="#8fac7e" stop-opacity="0"/>
    </radialGradient>
    <pattern id="kur-grid" width="48" height="48" patternUnits="userSpaceOnUse">
      <path d="M48 0H0V48" fill="none" stroke="#20281f" stroke-width="1"/>
    </pattern>
  </defs>

  <rect width="1200" height="800" fill="url(#kur-bg)"/>
  <rect width="1200" height="800" fill="url(#kur-grid)" opacity="0.6"/>
  <rect width="1200" height="800" fill="url(#kur-glow)"/>

  <g stroke="#8fac7e" stroke-width="2" stroke-linecap="round" opacity="0.7">
    <path d="M48 48h28M48 48v28"/>
    <path d="M1152 48h-28M1152 48v28"/>
    <path d="M48 752h28M48 752v-28"/>
    <path d="M1152 752h-28M1152 752v-28"/>
  </g>

  <text x="80" y="118" font-family="ui-monospace, Menlo, monospace" font-size="22" letter-spacing="6" fill="#7f7d72">PROJECT // 003</text>
  <g>
    <circle cx="978" cy="110" r="7" fill="#8fac7e"/>
    <text x="1000" y="118" font-family="ui-monospace, Menlo, monospace" font-size="22" letter-spacing="4" fill="#8fac7e">LIVE · 200 OK</text>
  </g>

  <!-- friendly robot / signal motif -->
  <g transform="translate(880 300)">
    <line x1="0" y1="-118" x2="0" y2="-92" stroke="#8fac7e" stroke-width="3" stroke-linecap="round"/>
    <circle cx="0" cy="-126" r="7" fill="#ec8b56"/>
    <rect x="-66" y="-92" width="132" height="108" rx="22" fill="#161c17" stroke="#2a342c" stroke-width="2"/>
    <circle cx="-26" cy="-44" r="13" fill="#8fac7e"/>
    <circle cx="26" cy="-44" r="13" fill="#8fac7e"/>
    <path d="M-30 -8h60" stroke="#3a463b" stroke-width="4" stroke-linecap="round"/>
    <!-- signal waves -->
    <g stroke="#8fac7e" stroke-width="2.5" fill="none" opacity="0.8" stroke-linecap="round">
      <path d="M84 -30a40 40 0 0 1 0 56"/>
      <path d="M104 -48a66 66 0 0 1 0 92"/>
    </g>
  </g>

  <text x="80" y="500" font-family="Georgia, 'Times New Roman', serif" font-size="84" font-weight="600" fill="#ece6d8">Keeping Up</text>
  <text x="80" y="588" font-family="Georgia, 'Times New Roman', serif" font-size="84" font-weight="600" fill="#ece6d8">With The Robots</text>
  <text x="82" y="646" font-family="ui-sans-serif, system-ui, sans-serif" font-size="26" fill="#b8b2a3">Western Mass AI newsletter &amp; community · Resend</text>

  <line x1="80" y1="700" x2="1120" y2="700" stroke="#2a342c" stroke-width="1"/>
  <text x="80" y="744" font-family="ui-monospace, Menlo, monospace" font-size="20" letter-spacing="3" fill="#7f7d72">NEXT.JS · API ROUTES · RESEND · VERCEL</text>
</svg>
